# xmcd CD database file
#
# Track frame offsets:
#	150
#	19737
#	34071
#	48926
#	68989
#	82627
#	101608
#	119439
#	144083
#	162641
#	178647
#	194993
#	214967
#	234353
#	248858
#	263595
#	279930
#	299553
#
# Disc length: 4260 seconds
#
# Revision: 3
# Processed by: cddbd v1.5.2PL0 Copyright (c) Steve Scherf et al.
# Submitted via: CDex 1.60beta1
#
DISCID=0510a212
DTITLE=研ナオコ - 研ナオコ BEST
DYEAR=2003
DGENRE=JPop
TTITLE0=愚図
TTITLE1=Ｌａｌａｌａ
TTITLE2=あばよ
TTITLE3=かもめはかもめ
TTITLE4=窓ガラス
TTITLE5=時代
TTITLE6=わかれうた
TTITLE7=りばいばる
TTITLE8=ひとりぼっちで踊らせて
TTITLE9=ボサノバ
TTITLE10=夏をあきらめて
TTITLE11=泣かせて
TTITLE12=六本木レイン
TTITLE13=愛、どうじゃ。恋どうじゃ。
TTITLE14=夏ざかり　ほの字組（Ｔｏｓｈｉ＆Ｎａｏｋｏ）
TTITLE15=Ｔｏｕｋｙｏ見返り美人
TTITLE16=雨の日の映画館
TTITLE17=冬のカトレア海岸
EXTD=YEAR: 2003
EXTT0=
EXTT1=
EXTT2=
EXTT3=
EXTT4=
EXTT5=
EXTT6=
EXTT7=
EXTT8=
EXTT9=
EXTT10=
EXTT11=
EXTT12=
EXTT13=
EXTT14=
EXTT15=
EXTT16=
EXTT17=
PLAYORDER=
